<svg xmlns="http://www.w3.org/2000/svg" viewBox="0 0 32 32" width="32" height="32">
  <defs>
    <linearGradient id="grad1" x1="0%" y1="0%" x2="100%" y2="100%">
      <stop offset="0%" style="stop-color:#667eea;stop-opacity:1" />
      <stop offset="100%" style="stop-color:#764ba2;stop-opacity:1" />
    </linearGradient>
  </defs>
  
  <!-- Background circle -->
  <circle cx="16" cy="16" r="15" fill="url(#grad1)" stroke="#ffffff" stroke-width="1"/>
  
  <!-- Icon grid representing multiple icons -->
  <g fill="#ffffff" opacity="0.9">
    <!-- Top row icons -->
    <rect x="8" y="8" width="3" height="3" rx="0.5"/>
    <rect x="13" y="8" width="3" height="3" rx="0.5"/>
    <rect x="18" y="8" width="3" height="3" rx="0.5"/>
    <rect x="23" y="8" width="3" height="3" rx="0.5"/>
    
    <!-- Middle row icons -->
    <rect x="8" y="13" width="3" height="3" rx="0.5"/>
    <rect x="13" y="13" width="3" height="3" rx="0.5"/>
    <rect x="18" y="13" width="3" height="3" rx="0.5"/>
    <rect x="23" y="13" width="3" height="3" rx="0.5"/>
    
    <!-- Bottom row icons -->
    <rect x="8" y="18" width="3" height="3" rx="0.5"/>
    <rect x="13" y="18" width="3" height="3" rx="0.5"/>
    <rect x="18" y="18" width="3" height="3" rx="0.5"/>
    <rect x="23" y="18" width="3" height="3" rx="0.5"/>
    
    <!-- Bottom row icons -->
    <rect x="8" y="23" width="3" height="3" rx="0.5"/>
    <rect x="13" y="23" width="3" height="3" rx="0.5"/>
    <rect x="18" y="23" width="3" height="3" rx="0.5"/>
    <rect x="23" y="23" width="3" height="3" rx="0.5"/>
  </g>
  
  <!-- Center accent -->
  <circle cx="16" cy="16" r="2" fill="#ffffff" opacity="0.7"/>
</svg> 